HIERARCHY
ROOT hip
{
  OFFSET 0 0 0
  CHANNELS 6 Xposition Yposition Zposition Zrotation Yrotation Xrotation
  JOINT abdomen
  {
    OFFSET 0 20.6881 -0.73152
    CHANNELS 3 Zrotation Xrotation Yrotation
    JOINT chest
    {
      OFFSET 0 11.7043 -0.48768
      CHANNELS 3 Zrotation Xrotation Yrotation
      JOINT neck
      {
        OFFSET 0 22.1894 -2.19456
        CHANNELS 3 Zrotation Xrotation Yrotation
        JOINT head
        {
          OFFSET -0.24384 7.07133 1.2192
          CHANNELS 3 Zrotation Xrotation Yrotation
          JOINT leftEye
          {
            OFFSET 4.14528 8.04674 8.04672
            CHANNELS 3 Zrotation Xrotation Yrotation
            End Site
            {
              OFFSET 1 0 0
            }
          }
          JOINT rightEye
          {
            OFFSET -3.6576 8.04674 8.04672
            CHANNELS 3 Zrotation Xrotation Yrotation
            End Site
            {
              OFFSET 1 0 0
            }
          }
        }
      }
      JOINT rCollar
      {
        OFFSET -2.68224 19.2634 -4.8768
        CHANNELS 3 Zrotation Xrotation Yrotation
        JOINT rShldr
        {
          OFFSET -8.77824 -1.95073 1.46304
          CHANNELS 3 Zrotation Xrotation Yrotation
          JOINT rForeArm
          {
            OFFSET -28.1742 -1.7115 0.48768
            CHANNELS 3 Zrotation Xrotation Yrotation
            JOINT rHand
            {
              OFFSET -22.5879 0.773209 7.07136
              CHANNELS 3 Zrotation Xrotation Yrotation
              JOINT rThumb1
              {
                OFFSET -1.2192 -0.487915 3.41376
                CHANNELS 3 Zrotation Xrotation Yrotation
                JOINT rThumb2
                {
                  OFFSET -3.37035 -0.52449 3.41376
                  CHANNELS 3 Zrotation Xrotation Yrotation
                  End Site
                  {
                    OFFSET -1.78271 -1.18214 1.43049
                  }
                }
              }
              JOINT rIndex1
              {
                OFFSET -7.75947 0.938293 5.60832
                CHANNELS 3 Zrotation Xrotation Yrotation
                JOINT rIndex2
                {
                  OFFSET -2.54057 -0.884171 1.56538
                  CHANNELS 3 Zrotation Xrotation Yrotation
                  End Site
                  {
                    OFFSET -1.62519 -0.234802 1.16502
                  }
                }
              }
              JOINT rMid1
              {
                OFFSET -8.24714 1.18213 3.41376
                CHANNELS 3 Zrotation Xrotation Yrotation
                JOINT rMid2
                {
                  OFFSET -3.10165 -0.590103 1.0647
                  CHANNELS 3 Zrotation Xrotation Yrotation
                  End Site
                  {
                    OFFSET -2.48547 -0.328903 0.83742
                  }
                }
              }
              JOINT rRing1
              {
                OFFSET -8.82822 0.546677 1.51678
                CHANNELS 3 Zrotation Xrotation Yrotation
                JOINT rRing2
                {
                  OFFSET -2.60934 -0.819778 -0.0198488
                  CHANNELS 3 Zrotation Xrotation Yrotation
                  End Site
                  {
                    OFFSET -2.33842 -0.294052 0.168128
                  }
                }
              }
              JOINT rPinky1
              {
                OFFSET -8.27202 -0.0477905 -0.4584
                CHANNELS 3 Zrotation Xrotation Yrotation
                JOINT rPinky2
                {
                  OFFSET -1.82734 -0.647385 -0.700984
                  CHANNELS 3 Zrotation Xrotation Yrotation
                  End Site
                  {
                    OFFSET -1.69225 -0.51767 -0.607171
                  }
                }
              }
            }
          }
        }
      }
      JOINT lCollar
      {
        OFFSET 2.68224 19.2634 -4.8768
        CHANNELS 3 Zrotation Xrotation Yrotation
        JOINT lShldr
        {
          OFFSET 8.77824 -1.95073 1.46304
          CHANNELS 3 Zrotation Xrotation Yrotation
          JOINT lForeArm
          {
            OFFSET 28.1742 -1.7115 0.48768
            CHANNELS 3 Zrotation Xrotation Yrotation
            JOINT lHand
            {
              OFFSET 22.5879 0.773209 7.07136
              CHANNELS 3 Zrotation Xrotation Yrotation
              JOINT lThumb1
              {
                OFFSET 1.2192 -0.487915 3.41376
                CHANNELS 3 Zrotation Xrotation Yrotation
                JOINT lThumb2
                {
                  OFFSET 3.37035 -0.52449 3.41376
                  CHANNELS 3 Zrotation Xrotation Yrotation
                  End Site
                  {
                    OFFSET 1.78271 -1.18214 1.43049
                  }
                }
              }
              JOINT lIndex1
              {
                OFFSET 7.75947 0.938293 5.60832
                CHANNELS 3 Zrotation Xrotation Yrotation
                JOINT lIndex2
                {
                  OFFSET 2.54057 -0.884171 1.56538
                  CHANNELS 3 Zrotation Xrotation Yrotation
                  End Site
                  {
                    OFFSET 1.62519 -0.234802 1.16502
                  }
                }
              }
              JOINT lMid1
              {
                OFFSET 8.24714 1.18213 3.41376
                CHANNELS 3 Zrotation Xrotation Yrotation
                JOINT lMid2
                {
                  OFFSET 3.10165 -0.590103 1.0647
                  CHANNELS 3 Zrotation Xrotation Yrotation
                  End Site
                  {
                    OFFSET 2.48547 -0.328903 0.83742
                  }
                }
              }
              JOINT lRing1
              {
                OFFSET 8.82822 0.546677 1.51678
                CHANNELS 3 Zrotation Xrotation Yrotation
                JOINT lRing2
                {
                  OFFSET 2.60934 -0.819778 -0.0198488
                  CHANNELS 3 Zrotation Xrotation Yrotation
                  End Site
                  {
                    OFFSET 2.33842 -0.294052 0.168128
                  }
                }
              }
              JOINT lPinky1
              {
                OFFSET 8.27202 -0.0477905 -0.4584
                CHANNELS 3 Zrotation Xrotation Yrotation
                JOINT lPinky2
                {
                  OFFSET 1.82734 -0.647385 -0.700984
                  CHANNELS 3 Zrotation Xrotation Yrotation
                  End Site
                  {
                    OFFSET 1.69225 -0.51767 -0.607171
                  }
                }
              }
            }
          }
        }
      }
    }
  }
  JOINT rButtock
  {
    OFFSET -8.77824 4.35084 1.2192
    CHANNELS 3 Zrotation Xrotation Yrotation
    JOINT rThigh
    {
      OFFSET 0 -1.70687 -2.19456
      CHANNELS 3 Zrotation Xrotation Yrotation
      JOINT rShin
      {
        OFFSET 0 -36.8199 0.73152
        CHANNELS 3 Zrotation Xrotation Yrotation
        JOINT rFoot
        {
          OFFSET 0.73152 -45.1104 -5.12064
          CHANNELS 3 Zrotation Xrotation Yrotation
          End Site
          {
            OFFSET -1.1221 -3.69964 12.103
          }
        }
      }
    }
  }
  JOINT lButtock
  {
    OFFSET 8.77824 4.35084 1.2192
    CHANNELS 3 Zrotation Xrotation Yrotation
    JOINT lThigh
    {
      OFFSET 0 -1.70687 -2.19456
      CHANNELS 3 Zrotation Xrotation Yrotation
      JOINT lShin
      {
        OFFSET 0 -36.8199 0.73152
        CHANNELS 3 Zrotation Xrotation Yrotation
        JOINT lFoot
        {
          OFFSET -0.73152 -45.1104 -5.12064
          CHANNELS 3 Zrotation Xrotation Yrotation
          End Site
          {
            OFFSET 1.1221 -3.69964 12.103
          }
        }
      }
    }
  }
}
MOTION
Frames:	6
Frame Time:	0.00833333
16.1286 84.6589 4.72099 0.0 0.0 0.0 -0.555346 -0.00305891 -0.0158856 -0.153309 -0.0047609 -0.0265634 -1.55444e-14 0.0 -1.2424e-17 -4.6761e-14 3.18055e-15 -8.38623e-17 -0.0 0.0 0.0 -0.0 0.0 0.0 -7.70446e-15 4.46489e-18 1.98785e-16 -1.63482e-13 2.11209e-16 -3.97569e-16 -2.82548e-12 8.51395e-13 3.18055e-15 -3.23771e-11 -8.26075e-13 -9.22361e-14 -7.63708e-11 4.96711e-14 -1.78111e-13 -1.31901e-10 8.5875e-14 -3.05333e-13 -7.63663e-11 5.08889e-14 -1.90833e-13 7.73091 5.47488 0.417314 -7.63712e-11 4.95968e-14 -1.74931e-13 2.90554 0.965183 0.102902 -7.63672e-11 4.9895e-14 -1.74931e-13 10.2786 0.731801 0.0259123 -7.63733e-11 5.20816e-14 -1.68569e-13 2.22167 -0.733487 -0.20892 -7.90065e-15 4.27076e-18 -1.98785e-16 -1.65403e-13 3.97569e-16 -1.59028e-15 -2.82975e-12 -8.43046e-13 3.81667e-14 -3.23749e-11 8.63198e-13 -1.08139e-13 -7.63688e-11 3.77952e-14 -1.74931e-13 -1.31878e-10 5.725e-14 -2.93406e-13 -7.63707e-11 3.81667e-14 -1.65389e-13 -7.73091 5.47488 -0.417314 -7.63692e-11 3.77691e-14 -1.78111e-13 -2.90554 0.965183 -0.102902 -7.63792e-11 3.75703e-14 -1.75726e-13 -10.2786 0.731801 -0.0259123 -7.63615e-11 4.01545e-14 -1.84472e-13 -2.22167 -0.733487 0.20892 -2.03217e-16 0.0 -3.88251e-19 0.0645725 -2.35904 -0.0223844 -0.00798484 -1.27855 -0.0684684 -0.484868 3.6378 0.128992 2.03217e-16 0.0 3.88251e-19 -0.910207 -4.5005 0.0764469 0.00202044 2.60031 0.0092644 0.492741 1.90048 -0.0947556
19.3103 81.1248 1.55814 11.7237 6.1754 14.507 -3.2004 -2.31977 0.651796 -2.6215 0.690142 0.282413 1.25141 3.888 4.12307 -1.74992 10.2197 8.80902 -0.0 0.0 0.0 -0.0 0.0 0.0 -1.04663e-13 1.68844e-13 8.08001e-14 22.9241 10.2301 -0.251869 -6.6014 -3.69813 9.43939 0.195457 -9.83443 -1.30976 4.0184e-10 -3.55336e-10 -3.31134e-10 6.97751e-10 -6.24059e-10 -5.58301e-10 4.01845e-10 -3.55335e-10 -3.31146e-10 7.73091 5.47488 0.417314 4.01839e-10 -3.55336e-10 -3.31129e-10 2.90554 0.965183 0.102902 4.01845e-10 -3.55337e-10 -3.31132e-10 10.2786 0.731801 0.0259123 4.01838e-10 -3.55335e-10 -3.31124e-10 2.22167 -0.733487 -0.20892 -1.04865e-13 1.68847e-13 8.0474e-14 -18.0338 11.8955 -2.37156 6.4875 -3.60348 -9.31964 -0.778745 -19.803 2.21842 1.68768e-11 2.76256e-10 -2.53958e-10 4.08579e-11 4.69852e-10 -4.2861e-10 1.68721e-11 2.76254e-10 -2.53947e-10 -7.73091 5.47488 -0.417314 1.68763e-11 2.76253e-10 -2.53959e-10 -2.90554 0.965183 -0.102902 1.68682e-11 2.76253e-10 -2.53958e-10 -10.2786 0.731801 -0.0259123 1.68857e-11 2.76256e-10 -2.53968e-10 -2.22167 -0.733487 0.20892 -2.03217e-16 0.0 -3.88251e-19 -5.94241 -16.9655 6.50026 0.00219712 18.8104 0.198385 -0.411651 5.45794 2.97727 2.03217e-16 0.0 3.88251e-19 -6.24408 -13.7616 -1.83592 -0.0311911 13.6397 -0.165758 0.780147 -2.75158 2.85214
19.1789 80.9259 1.23535 11.358 4.8125 15.395 -5.93898 -4.76841 1.36112 -5.23983 1.42622 0.609319 1.96296 7.93296 8.54435 -7.15829 20.1995 19.0437 -0.0 0.0 0.0 -0.0 0.0 0.0 -2.12135e-13 3.5125e-13 1.70368e-13 47.262 21.0399 -0.545387 -12.2706 -7.27161 19.5397 -0.115759 -20.2053 -2.82801 9.21478e-10 -7.43685e-10 -6.79623e-10 1.59894e-09 -1.30555e-09 -1.14537e-09 9.21484e-10 -7.43683e-10 -6.79636e-10 7.73091 5.47488 0.417314 9.21477e-10 -7.43685e-10 -6.79616e-10 2.90554 0.965183 0.102902 9.21486e-10 -7.43686e-10 -6.79623e-10 10.2786 0.731801 0.0259123 9.21477e-10 -7.43684e-10 -6.79613e-10 2.22167 -0.733487 -0.20892 -2.12347e-13 3.51258e-13 1.70119e-13 -35.9319 24.4007 -5.24511 12.0857 -7.09375 -19.2858 0.544393 -40.6298 5.66147 1.16741e-10 5.73483e-10 -5.26707e-10 2.25818e-10 9.75158e-10 -8.8889e-10 1.16733e-10 5.73477e-10 -5.26694e-10 -7.73091 5.47488 -0.417314 1.1674e-10 5.73477e-10 -5.26706e-10 -2.90554 0.965183 -0.102902 1.16734e-10 5.73476e-10 -5.26707e-10 -10.2786 0.731801 -0.0259123 1.16752e-10 5.7348e-10 -5.26717e-10 -2.22167 -0.733487 0.20892 -2.03217e-16 0.0 -3.88251e-19 -8.13599 -31.7089 15.1082 -0.242527 40.0457 0.599177 -0.532288 7.35744 6.00832 2.03217e-16 0.0 3.88251e-19 -12.6135 -23.5108 -4.08973 0.0141773 25.3087 -0.377354 1.60709 -7.63534 6.01253
19.185 80.9578 1.24097 11.3735 4.9133 15.382 -8.32756 -6.94943 2.00026 -7.58036 2.07972 0.900897 2.06143 11.4203 12.594 -15.2933 27.5891 29.6495 -0.0 0.0 0.0 -0.0 0.0 0.0 -2.98579e-13 5.06523e-13 2.42003e-13 69.0795 30.6876 -0.864692 -16.2692 -9.89149 28.7244 -0.931026 -29.4369 -4.44652 1.35826e-09 -1.06611e-09 -9.93045e-10 2.35706e-09 -1.87235e-09 -1.67429e-09 1.35827e-09 -1.06611e-09 -9.93058e-10 7.73091 5.47488 0.417314 1.35826e-09 -1.06611e-09 -9.93036e-10 2.90554 0.965183 0.102902 1.35827e-09 -1.06611e-09 -9.93045e-10 10.2786 0.731801 0.0259123 1.35826e-09 -1.06611e-09 -9.93035e-10 2.22167 -0.733487 -0.20892 -2.98794e-13 5.06534e-13 2.4182e-13 -50.5881 35.4132 -8.55287 16.0596 -9.668 -28.3412 5.87761 -58.8758 12.1811 2.03368e-10 8.28693e-10 -7.61524e-10 3.86329e-10 1.40944e-09 -1.28524e-09 2.03358e-10 8.28686e-10 -7.61509e-10 -7.73091 5.47488 -0.417314 2.03367e-10 8.28685e-10 -7.61522e-10 -2.90554 0.965183 -0.102902 2.03363e-10 8.28684e-10 -7.61524e-10 -10.2786 0.731801 -0.0259123 2.0338e-10 8.28688e-10 -7.61534e-10 -2.22167 -0.733487 0.20892 -2.03217e-16 0.0 -3.88251e-19 -5.01594 -43.3914 26.1711 -0.953332 58.9816 1.35902 -0.811809 9.01599 8.74268 2.03217e-16 0.0 3.88251e-19 -19.0584 -32.1375 -6.5016 0.145067 35.7169 -0.618001 2.80966 -11.9239 8.93016
19.1875 80.9591 1.24655 11.3779 4.9636 15.3437 -9.95656 -8.465 2.45145 -9.21041 2.52698 1.10364 1.82823 13.7459 15.4997 -22.8237 31.4487 38.0219 -0.0 0.0 0.0 -0.0 0.0 0.0 -3.32453e-13 5.93962e-13 2.68807e-13 84.3713 37.4325 -1.14816 -18.5354 -11.2741 35.2326 -1.8908 -35.8821 -5.83521 1.58791e-09 -1.22372e-09 -1.21879e-09 2.75749e-09 -2.1524e-09 -2.05788e-09 1.58791e-09 -1.22372e-09 -1.21881e-09 7.73091 5.47488 0.417314 1.5879e-09 -1.22372e-09 -1.21879e-09 2.90554 0.965183 0.102902 1.58792e-09 -1.22372e-09 -1.2188e-09 10.2786 0.731801 0.0259123 1.58791e-09 -1.22372e-09 -1.21879e-09 2.22167 -0.733487 -0.20892 -3.32653e-13 5.93974e-13 2.68657e-13 -59.77 42.9478 -11.6179 18.3257 -11.0411 -34.7549 17.194 -70.9169 23.9691 2.56903e-10 9.78863e-10 -9.01512e-10 4.85719e-10 1.66617e-09 -1.52178e-09 2.56891e-10 9.78855e-10 -9.01496e-10 -7.73091 5.47488 -0.417314 2.56903e-10 9.78855e-10 -9.01509e-10 -2.90554 0.965183 -0.102902 2.56899e-10 9.78854e-10 -9.01512e-10 -10.2786 0.731801 -0.0259123 2.56915e-10 9.78858e-10 -9.01522e-10 -2.22167 -0.733487 0.20892 -2.03217e-16 0.0 -3.88251e-19 1.16794 -49.9782 37.0462 -2.44314 72.1717 2.83802 -1.10277 10.1434 10.6784 2.03217e-16 0.0 3.88251e-19 -24.0901 -38.0931 -8.54936 0.308329 42.9746 -0.838956 3.91841 -14.8537 11.0535
19.181 80.9485 1.24541 11.3444 4.9864 15.3166 -10.5761 -9.0487 2.63219 -9.83754 2.68037 1.18169 1.67143 14.6083 16.6591 -26.1511 32.6147 41.5038 -0.0 0.0 0.0 -0.0 0.0 0.0 -2.98579e-13 5.88168e-13 2.31284e-13 90.3952 40.1241 -1.29803 -19.3284 -11.7063 37.819 -2.39482 -38.5166 -6.48901 1.61455e-09 -1.23089e-09 -1.40506e-09 2.80969e-09 -2.17242e-09 -2.37948e-09 1.61456e-09 -1.23089e-09 -1.40507e-09 7.73091 5.47488 0.417314 1.61455e-09 -1.23089e-09 -1.40505e-09 2.90554 0.965183 0.102902 1.61456e-09 -1.23089e-09 -1.40506e-09 10.2786 0.731801 0.0259123 1.61455e-09 -1.23089e-09 -1.40505e-09 2.22167 -0.733487 -0.20892 -2.98731e-13 5.88176e-13 2.31118e-13 -63.0702 45.8576 -13.0499 19.1204 -11.474 -37.3009 26.6977 -75.1152 33.5769 2.56742e-10 1.03242e-09 -9.87629e-10 4.91763e-10 1.76574e-09 -1.67045e-09 2.56731e-10 1.03242e-09 -9.87614e-10 -7.73091 5.47488 -0.417314 2.56743e-10 1.03242e-09 -9.87626e-10 -2.90554 0.965183 -0.102902 2.56738e-10 1.03242e-09 -9.87628e-10 -10.2786 0.731801 -0.0259123 2.56752e-10 1.03242e-09 -9.87638e-10 -2.22167 -0.733487 0.20892 -2.03217e-16 0.0 -3.88251e-19 4.69157 -52.052 42.2062 -3.88403 77.3319 4.26411 -1.24079 10.5822 11.4643 2.03217e-16 0.0 3.88251e-19 -26.1893 -40.4274 -9.45906 0.394788 45.8284 -0.944357 4.41941 -15.9779 11.9258
